<svg id="logo" xmlns="http://www.w3.org/2000/svg" version="1.1" xmlns:xlink="http://www.w3.org/1999/xlink" xmlns:svgjs="http://svgjs.com/svgjs" viewBox="9.63 53.22 291.62 196.73"><defs id="SvgjsDefs1002"/><g id="SvgjsG1008" transform="matrix(1,0,0,1,0,0)"><svg xmlns="http://www.w3.org/2000/svg" overflow="visible" viewBox="0 0 469.205 209.638" width="288" height="288"><defs transform="translate(16.077 46.182) scale(.9372)"><clipPath id="a" fill="rgba(13, 15, 69,1)"><use width="100%" height="100%" href="#o_f3ccd5i16_8468" overflow="visible"/></clipPath></defs><g fill="#fed3d9" transform="translate(74.15 -114.646)" class="colorb5e853 svgShape"><path d="m 78.4,92.5 c 0.9,-0.4 1.7,-0.9 2.4,-1.6 0.6,-0.6 1,-1.2 1.4,-1.9 2.4,0.6 5.1,-0.1 7,-2 1,-1 1.6,-2.1 1.9,-3.3 0.9,-0.4 1.7,-0.9 2.4,-1.6 0.9,-0.9 1.4,-1.9 1.8,-2.9 2.1,0.1 4.2,-0.6 5.7,-2.1 1.8,-1.8 2.4,-4.2 2.1,-6.5 0.2,-0.2 0.5,-0.4 0.7,-0.6 1.4,-1.4 2.1,-3.2 2.2,-5 1.6,-2.8 1.1,-6.4 -1.2,-8.8 -2.9,-2.9 -7.6,-2.9 -10.5,0 -1.4,1.4 -2.1,3.2 -2.2,5 -0.8,1.5 -1.1,3.2 -0.8,4.8 -0.2,0.2 -0.5,0.4 -0.7,0.6 -0.9,0.9 -1.4,1.9 -1.8,2.9 -2.1,-0.1 -4.2,0.6 -5.7,2.1 -1,1 -1.6,2.1 -1.9,3.3 -0.9,0.4 -1.7,0.9 -2.4,1.6 -0.4,0.4 -0.7,0.8 -1,1.2 -1.7,-0.6 -3.6,-0.6 -5.3,0.1 -0.4,-0.9 -1,-1.8 -1.7,-2.6 -3,-3 -8,-3.1 -11.1,-0.1 -0.2,-1.7 -1,-3.4 -2.3,-4.7 -1.1,-1.1 -2.5,-1.8 -4,-2.1 0.1,-1.8 -0.4,-3.6 -1.5,-5.1 0.2,-1.8 -0.2,-3.7 -1.2,-5.3 0.3,-0.1 0.5,-0.2 0.7,-0.4 0.4,-0.4 0.5,-0.9 0.4,-1.4 0.4,0 0.7,-0.2 1,-0.4 0.4,-0.4 0.5,-1 0.4,-1.6 0.4,0 0.9,-0.1 1.2,-0.4 0.3,-0.3 0.5,-0.8 0.4,-1.2 0.2,-0.1 0.5,-0.2 0.6,-0.4 0.3,-0.3 0.4,-0.7 0.4,-1 0.1,0 0.2,-0.1 0.3,-0.2 0.1,-0.1 0.2,-0.3 0.3,-0.5 0.3,0 0.6,-0.1 0.8,-0.3 0.2,-0.2 0.3,-0.6 0.3,-0.9 0,0 0,0 0.1,0 0.4,-0.4 0.4,-1 0,-1.4 -0.4,-0.4 -1,-0.4 -1.4,0 -0.2,0.2 -0.3,0.4 -0.3,0.6 -0.3,0 -0.6,0.1 -0.8,0.3 -0.2,0.2 -0.3,0.5 -0.3,0.8 0,0 0,0.1 -0.1,0.1 -0.5,-0.1 -1,0.1 -1.4,0.4 -0.3,0.3 -0.5,0.8 -0.4,1.2 0,0 -0.1,0 -0.1,0.1 -0.4,-0.1 -0.9,0.1 -1.3,0.4 -0.3,0.3 -0.5,0.7 -0.4,1.2 -0.5,-0.2 -1.2,-0.1 -1.6,0.4 -0.2,0.2 -0.4,0.5 -0.4,0.8 -0.6,-0.2 -1.2,-0.1 -1.7,0.3 -0.2,0.2 -0.3,0.4 -0.4,0.6 -0.7,-0.3 -1.4,-0.4 -2.1,-0.5 -0.1,-0.3 -0.2,-0.5 -0.4,-0.7 0,0 -0.1,-0.1 -0.2,-0.1 0.1,-0.1 0.3,-0.2 0.4,-0.3 0.6,-0.6 0.6,-1.6 0,-2.2 0,0 -0.1,-0.1 -0.1,-0.1 0,0 0.1,-0.1 0.1,-0.1 0.4,-0.4 0.5,-0.9 0.4,-1.4 0.4,0 0.8,-0.1 1.1,-0.4 0.3,-0.3 0.5,-0.8 0.4,-1.2 0.3,-0.1 0.5,-0.2 0.7,-0.4 0.4,-0.4 0.5,-1 0.4,-1.6 0.4,0 0.7,-0.2 1,-0.4 0.4,-0.4 0.5,-1.1 0.4,-1.6 0.1,0 0.1,0 0.2,-0.1 0.4,0.2 0.8,0.1 1.1,-0.2 0.2,-0.2 0.3,-0.6 0.3,-0.9 0,0 0,0 0.1,0 0.4,-0.4 0.4,-1 0,-1.4 -0.4,-0.4 -1,-0.4 -1.4,0 -0.2,0.2 -0.3,0.4 -0.3,0.6 -0.3,0 -0.6,0.1 -0.8,0.3 -0.2,0.2 -0.3,0.5 -0.3,0.7 -0.5,-0.1 -0.9,0.1 -1.3,0.4 -0.3,0.3 -0.4,0.6 -0.4,0.9 -0.5,-0.2 -1.1,-0.1 -1.6,0.4 -0.4,0.4 -0.5,0.8 -0.4,1.3 -0.5,-0.1 -0.9,0.1 -1.3,0.4 -0.1,0.1 -0.2,0.3 -0.3,0.4 -0.5,-0.2 -1.2,-0.1 -1.6,0.3 -0.1,0.1 -0.3,0.3 -0.3,0.5 -0.1,-0.1 -0.1,-0.2 -0.2,-0.3 -0.6,-0.6 -1.6,-0.6 -2.2,0 -0.1,0.1 -0.1,0.1 -0.1,0.2 -0.9,-0.2 -1.9,-0.2 -2.8,0 0,-0.4 -0.2,-0.8 -0.5,-1.1 C 34.8,46.2 34.5,46 34.1,46 33.8,45.5 33.4,45.1 33,44.7 c -1.1,-1.1 -2.5,-1.8 -3.9,-2.1 0,-0.1 0,-0.2 -0.1,-0.3 0.7,-2.6 0,-5.5 -2.1,-7.6 -1.8,-1.8 -4.2,-2.5 -6.5,-2.3 1,-1.9 1.2,-4.2 0.5,-6.2 1.4,-1.6 2,-3.7 1.9,-5.8 1.6,-0.2 3.1,-0.9 4.4,-2.1 0.8,-0.8 1.3,-1.7 1.7,-2.6 2.4,0.6 5,-0.1 6.9,-2 2.1,-2.1 2.7,-5.2 1.7,-7.8 1.9,0 3.8,-0.7 5.2,-2.2 2.9,-2.9 2.9,-7.6 0,-10.5 -2.9,-2.9 -7.6,-2.9 -10.5,0 -0.9,0.9 -1.6,2 -1.9,3.2 -2.4,-0.5 -4.9,0.2 -6.7,2 -2,2 -2.6,4.7 -1.9,7.2 -1.8,0 -3.6,0.8 -5,2.2 -1.5,1.5 -2.2,3.4 -2.2,5.3 -1.9,0.1 -3.8,0.9 -5.2,2.3 -2.2,2.2 -2.8,5.4 -1.9,8.2 -2.3,2.6 -2.5,6.4 -0.8,9.3 -0.5,0.2 -0.9,0.5 -1.3,0.9 -1.1,1.1 -1.6,2.5 -1.6,4.2 -3.5,0.1 -6.5,1.1 -8.5,3.1 -7.9,7.9 -0.5,28 16.5,44.9 17,17 37.1,24.3 44.9,16.5 0.7,-0.7 1.2,-1.4 1.7,-2.3 2.9,0.9 5.5,0.6 7.2,-1 4.4,3 9.3,3.6 11.8,1.1 1.7,-2 2,-4.8 1.1,-7.8 z" clip-path="url(#a)" transform="translate(117.643 96.706) scale(2.79604)" fill="#fed3d9" class="color000 svgShape"/><path d="M 86.8,12.1 V 12 l -0.2,-0.2 h -0.1 c -0.1,0 -1.7,-0.4 -3.9,-0.4 -2.6,0 -6.2,0.5 -8.5,2.8 l -8.7,8.7 c -0.7,0.3 -2,0.6 -4.8,0.6 -5.2,0 -7,1.9 -9.4,4.3 l -0.5,0.5 c -0.2,0.2 -1,1 3.1,6.2 L 49.2,39 c -0.2,0.2 -0.4,0.6 -0.4,0.9 0,0.3 0.1,0.7 0.4,0.9 l 1.9,1.9 c 0.5,0.5 1.3,0.5 1.8,0 l 4.2,-4.2 c 0.5,0.6 0.9,1 1.3,1.4 0.4,0.4 0.9,0.8 1.4,1.3 l -4.2,4.2 c -0.5,0.5 -0.5,1.3 0,1.8 l 1.9,1.9 c 0.2,0.2 0.6,0.4 0.9,0.4 0.3,0 0.7,-0.1 0.9,-0.4 l 4.6,-4.6 c 1.2,0.9 4.4,3.3 5.6,3.3 0.3,0 0.5,-0.1 0.6,-0.2 l 0.5,-0.5 c 2.4,-2.3 4.2,-4.2 4.3,-9.4 0,-2.7 0.3,-4 0.5,-4.6 l 8.8,-8.8 c 4.3,-3.9 2.7,-11.8 2.6,-12.2 z m -15.5,14.1 -2.2,-0.7 8.9,-5.3 -3.8,4.7 -0.5,0.6 0.8,0.2 2.2,0.5 -9.3,5.3 4.1,-4.5 0.5,-0.6 z m -13.7,11.3 -0.4,-0.4 -5,5 c -0.1,0.1 -0.3,0.1 -0.4,0 l -1.9,-1.9 c -0.1,-0.1 -0.1,-0.3 0,-0.4 l 5.2,-5.2 -0.2,-0.3 -0.1,-0.1 c -1.6,-2 -3.3,-4.6 -3.3,-5.2 l 0.4,-0.4 c 2.3,-2.3 3.9,-3.9 8.7,-4 2.4,0 4.2,-0.3 5.2,-0.8 L 74.7,15 c 2.1,-2.1 5.4,-2.5 7.8,-2.5 1.5,0 2.7,0.2 3.3,0.3 l -5.8,5.7 -12.1,7.2 3.2,1 -6.2,6.9 0.2,-0.3 -6,6 c -0.4,-0.5 -0.9,-1.1 -1.5,-1.8 z" transform="translate(117.643 96.706) scale(2.79604)" fill="#fed3d9" class="color000 svgShape"/><path d="m 52.5,16.2 m -0.6,0 a 0.6,0.6 0 1 0 1.2,0 0.6,0.6 0 1 0 -1.2,0" data-cx="52.5" data-cy="16.2" data-r=".6" data-type="circle" transform="translate(117.643 96.706) scale(2.79604)" fill="#fed3d9" class="color000 svgShape"/><path d="m 83.4,29.8 m -0.6,0 a 0.6,0.6 0 1 0 1.2,0 0.6,0.6 0 1 0 -1.2,0" data-cx="83.4" data-cy="29.8" data-r=".6" data-type="circle" transform="translate(117.643 96.706) scale(2.79604)" fill="#fed3d9" class="color000 svgShape"/><path d="m 56.8,15.2 m -0.5,0 a 0.5,0.5 0 1 0 1,0 0.5,0.5 0 1 0 -1,0" data-cx="56.8" data-cy="15.2" data-r=".5" data-type="circle" transform="translate(117.643 96.706) scale(2.79604)" fill="#fed3d9" class="color000 svgShape"/><path d="m 29.7,34.9 m -0.5,0 a 0.5,0.5 0 1 0 1,0 0.5,0.5 0 1 0 -1,0" data-cx="29.7" data-cy="34.9" data-r=".5" data-type="circle" transform="translate(117.643 96.706) scale(2.79604)" fill="#fed3d9" class="color000 svgShape"/><path d="m 20.6,69.5 m -0.5,0 a 0.5,0.5 0 1 0 1,0 0.5,0.5 0 1 0 -1,0" data-cx="20.6" data-cy="69.5" data-r=".5" data-type="circle" transform="translate(117.643 96.706) scale(2.79604)" fill="#fed3d9" class="color000 svgShape"/><path d="m 39.1,40.3 m -1.1,0 a 1.1,1.1 0 1 0 2.2,0 1.1,1.1 0 1 0 -2.2,0" data-cx="39.1" data-cy="40.3" data-r="1.1" data-type="circle" transform="translate(117.643 96.706) scale(2.79604)" fill="#fed3d9" class="color000 svgShape"/><path d="m 21.7,57.6 m -1.1,0 a 1.1,1.1 0 1 0 2.2,0 1.1,1.1 0 1 0 -2.2,0" data-cx="21.7" data-cy="57.6" data-r="1.1" data-type="circle" transform="translate(117.643 96.706) scale(2.79604)" fill="#fed3d9" class="color000 svgShape"/><path d="m 46,61.7 m -0.6,0 a 0.6,0.6 0 1 0 1.2,0 0.6,0.6 0 1 0 -1.2,0" data-cx="46" data-cy="61.7" data-r=".6" data-type="circle" transform="translate(117.643 96.706) scale(2.79604)" fill="#fed3d9" class="color000 svgShape"/><path d="m 57.8,59.9 m -0.4,0 a 0.4,0.4 0 1 0 0.8,0 0.4,0.4 0 1 0 -0.8,0" data-cx="57.8" data-cy="59.9" data-r=".4" data-type="circle" transform="translate(117.643 96.706) scale(2.79604)" fill="#fed3d9" class="color000 svgShape"/><path d="m 66.7,58 m -0.9,0 a 0.9,0.9 0 1 0 1.8,0 0.9,0.9 0 1 0 -1.8,0" data-cx="66.7" data-cy="58" data-r=".9" data-type="circle" transform="translate(117.643 96.706) scale(2.79604)" fill="#fed3d9" class="color000 svgShape"/><path d="m 93,44 m -0.6,0 a 0.6,0.6 0 1 0 1.2,0 0.6,0.6 0 1 0 -1.2,0" data-cx="93" data-cy="44" data-r=".6" data-type="circle" transform="translate(117.643 96.706) scale(2.79604)" fill="#fed3d9" class="color000 svgShape"/><path d="m 81.6,46.1 m -0.8,0 a 0.8,0.8 0 1 0 1.6,0 0.8,0.8 0 1 0 -1.6,0" data-cx="81.6" data-cy="46.1" data-r=".8" data-type="circle" transform="translate(117.643 96.706) scale(2.79604)" fill="#fed3d9" class="color000 svgShape"/><path d="m 18.9,43.2 m -0.8,0 a 0.8,0.8 0 1 0 1.6,0 0.8,0.8 0 1 0 -1.6,0" data-cx="18.9" data-cy="43.2" data-r=".8" data-type="circle" transform="translate(117.643 96.706) scale(2.79604)" fill="#fed3d9" class="color000 svgShape"/><path d="m 58.5,79.4 m -0.4,0 a 0.4,0.4 0 1 0 0.8,0 0.4,0.4 0 1 0 -0.8,0" data-cx="58.5" data-cy="79.4" data-r=".4" data-type="circle" transform="translate(117.643 96.706) scale(2.79604)" fill="#fed3d9" class="color000 svgShape"/><path d="m 95.5,42 m -0.4,0 a 0.4,0.4 0 1 0 0.8,0 0.4,0.4 0 1 0 -0.8,0" data-cx="95.5" data-cy="42" data-r=".4" data-type="circle" transform="translate(117.643 96.706) scale(2.79604)" fill="#fed3d9" class="color000 svgShape"/><path d="m 95.7,45.7 m -0.4,0 a 0.4,0.4 0 1 0 0.8,0 0.4,0.4 0 1 0 -0.8,0" data-cx="95.7" data-cy="45.7" data-r=".4" data-type="circle" transform="translate(117.643 96.706) scale(2.79604)" fill="#fed3d9" class="color000 svgShape"/><path d="m 67.4,8.2 m -0.5,0 a 0.5,0.5 0 1 0 1,0 0.5,0.5 0 1 0 -1,0" data-cx="67.4" data-cy="8.2" data-r=".5" data-type="circle" transform="translate(117.643 96.706) scale(2.79604)" fill="#fed3d9" class="color000 svgShape"/><path d="M28.9 64.4l4.7.4-4.7.4-.4 4.7-.4-4.7-4.7-.4 4.7-.4.4-4.7zM49.3 74.6l2.8.2-2.8.3-.2 2.8-.3-2.8-2.8-.3 2.8-.2.3-2.8zM80.7 62l2.5.2-2.5.3-.2 2.4-.2-2.4-2.4-.3 2.4-.2.2-2.4zM39.9 21.9l7.2.6-7.2.6-.7 7.3-.6-7.3-7.3-.6 7.3-.6.6-7.3z" data-type="polygon" transform="translate(117.643 96.706) scale(2.79604)" fill="#fed3d9" class="color000 svgShape"/></g><path fill="#fed3d9" d="m 19.369485,48.326845 h 17.20406 q 2.21749,0 3.79746,1.57073 1.57072,1.57996 1.57072,3.79746 v 0 20.354741 h -3.64039 V 53.695035 q 0,-0.71145 -0.50817,-1.21963 -0.50818,-0.50817 -1.21962,-0.50817 v 0 h -15.43006 q -0.71145,0 -1.24734,0.50817 -0.52666,0.50818 -0.52666,1.21963 v 0 20.354741 h -3.64039 V 39.900375 h 3.64039 z m 26.12393,0 h 20.79824 q 2.26369,0 3.83442,1.57073 1.57072,1.57996 1.57072,3.79746 v 0 20.354741 h -20.84444 q -2.21749,0 -3.78822,-1.57072 -1.57072,-1.57997 -1.57072,-3.79746 v 0 -9.313481 h 22.52604 v -5.67308 q 0,-0.71145 -0.50818,-1.21963 -0.50817,-0.50817 -1.21962,-0.50817 v 0 h -20.79824 z m 5.35894,22.082551 h 17.1671 v -7.40089 h -18.8949 v 5.67309 q 0,0.71145 0.50818,1.21962 0.51741,0.50818 1.21962,0.50818 z m 30.298353,0 v 0 h 20.844442 v 3.64038 H 81.150708 q -2.2175,0 -3.79746,-1.57072 -1.57072,-1.57997 -1.57072,-3.79746 v 0 -14.986561 q 0,-2.2175 1.57072,-3.79746 1.57996,-1.57073 3.79746,-1.57073 v 0 h 20.752052 v 3.64039 H 81.150708 q -0.71145,0 -1.21962,0.50817 -0.51742,0.50818 -0.51742,1.21963 v 0 14.986561 q 0,0.71145 0.51742,1.21962 0.50817,0.50818 1.21962,0.50818 z m 35.433702,-11.041281 10.10808,-11.04127 h 4.79533 l -11.66956,12.86147 11.62336,12.861461 h -4.74913 l -10.10808,-11.04127 h -7.09598 v 11.04127 h -3.64038 V 39.900375 h 3.64038 v 19.46774 z m 33.61721,-11.04127 h 17.20406 q 2.21749,0 3.79746,1.57073 1.57072,1.57996 1.57072,3.79746 v 0 14.986561 q 0,2.21749 -1.57072,3.79746 -1.57997,1.57072 -3.79746,1.57072 v 0 H 146.56124 V 39.900375 h 3.64038 z m 18.93186,20.354751 v 0 -14.986561 q 0,-0.71145 -0.50818,-1.21963 -0.50818,-0.50817 -1.21962,-0.50817 v 0 h -15.43006 q -0.71145,0 -1.24734,0.50817 -0.52666,0.50818 -0.52666,1.21963 v 0 14.986561 q 0,0.71145 0.52666,1.21962 0.53589,0.50818 1.24734,0.50818 v 0 h 15.43006 q 0.71144,0 1.21962,-0.50818 0.50818,-0.50817 0.50818,-1.21962 z m 6.92597,-20.354751 h 20.79824 q 2.2637,0 3.83442,1.57073 1.57072,1.57996 1.57072,3.79746 v 0 20.354741 h -20.84444 q -2.21749,0 -3.78822,-1.57072 -1.57072,-1.57997 -1.57072,-3.79746 v 0 -9.313481 h 22.52604 v -5.67308 q 0,-0.71145 -0.50817,-1.21963 -0.50818,-0.50817 -1.21963,-0.50817 v 0 h -20.79824 z m 5.35894,22.082551 h 17.1671 v -7.40089 h -18.8949 v 5.67309 q 0,0.71145 0.50818,1.21962 0.51742,0.50818 1.21962,0.50818 z m 30.55707,-22.082551 v 0 h 14.45991 v 3.64039 h -14.45991 q -0.70221,0 -1.21962,0.50817 -0.50818,0.50818 -0.50818,1.21963 v 0 20.354741 h -3.63115 V 53.695035 q 0,-2.2175 1.57073,-3.79746 1.57072,-1.57073 3.78822,-1.57073 z" font-family="Orbitron" font-size="48" font-weight="400" text-anchor="middle" class="colorb5e853 svgShape"/></svg></g></svg>